<svg width="85" height="72" viewBox="0 0 85 72" fill="none" xmlns="http://www.w3.org/2000/svg">
<path d="M40 16H35V49H40V16Z" fill="#3A57E8"/>
<path d="M73 15.5433V49H63.4521V28.6934L52.8445 39.1171L46.0935 32.4832L32 18.6339L38.751 12L52.8445 25.8492L63.4521 15.4255L65.8185 13.0854L73 15.5433Z" fill="#3A57E8"/>
<path d="M52.5999 8V17.481H35.8459V50.2464H26.1539V17.481H9.3999V8H52.5999Z" fill="#213AB6"/>
<path d="M42.12 39.6857L35.8224 33.4287L16.4928 52.6377H11.7998L35.8111 28.7808L42.1087 35.0378L49.6906 27.5047L51.9806 29.78L66.8431 15.013L59.7847 8H75.7998V23.9233L69.1821 17.3519L51.9279 34.4952L49.6378 32.2199L42.12 39.6857Z" fill="#5DB075"/>
<path d="M2.86984 58.1096H1V56.7023H6.65302V58.1096H4.79405V62.8593H2.86984V58.1096Z" fill="white"/>
<path d="M12.7901 60.6779L14.2794 62.6306V62.8593H12.1052L10.8006 61.0474H9.78961V62.8593H7.84367V56.7023H11.1811C11.6595 56.7023 12.0871 56.7786 12.4639 56.931C12.848 57.0776 13.1452 57.2682 13.3554 57.5027C13.5728 57.7373 13.7286 58.0041 13.8228 58.3031C13.917 58.5963 13.9388 58.8895 13.8881 59.1827C13.8446 59.47 13.7286 59.7485 13.5402 60.0183C13.3517 60.288 13.1017 60.5079 12.7901 60.6779ZM11.1811 59.6313C11.3841 59.6313 11.5544 59.5814 11.6921 59.4817C11.8298 59.3762 11.9167 59.2501 11.953 59.1035C11.9892 58.9511 11.9928 58.8015 11.9638 58.655C11.9349 58.5025 11.8479 58.3735 11.7029 58.2679C11.5652 58.1624 11.3913 58.1096 11.1811 58.1096C11.0434 58.1096 10.8948 58.1096 10.7354 58.1096C10.5832 58.1096 10.4129 58.1096 10.2245 58.1096C10.036 58.1096 9.89108 58.1096 9.78961 58.1096V59.6313H11.1811Z" fill="white"/>
<path d="M20.6333 62.8593L20.1876 62.0852H17.1871L16.7414 62.8593H14.8389V62.6306L18.2634 56.6232H19.1004L22.5357 62.6306V62.8593H20.6333ZM19.5462 60.7307L18.6765 59.1123L17.8285 60.7307H19.5462Z" fill="white"/>
<path d="M26.4049 56.7023C27.1949 56.7023 27.8798 56.8548 28.4596 57.1597C29.0394 57.4646 29.4598 57.8458 29.7207 58.3031C29.9816 58.7605 30.112 59.2531 30.112 59.7808C30.112 60.3085 29.9816 60.8011 29.7207 61.2585C29.4598 61.7158 29.0394 62.097 28.4596 62.4019C27.8798 62.7068 27.1949 62.8593 26.4049 62.8593H23.535V56.7023H26.4049ZM25.4809 58.136V61.4256H26.4049C26.7891 61.4256 27.1224 61.3464 27.4051 61.1881C27.695 61.0239 27.9016 60.8187 28.0248 60.5724C28.1552 60.3261 28.2204 60.0622 28.2204 59.7808C28.2204 59.4993 28.1552 59.2355 28.0248 58.9892C27.9016 58.7429 27.695 58.5406 27.4051 58.3823C27.1224 58.2181 26.7891 58.136 26.4049 58.136H25.4809Z" fill="white"/>
<path d="M36.3541 56.7023V58.1096H33.5385V58.9804H36.1258V60.3789H33.5385V61.4608H36.452V62.8593H31.6034V56.7023H36.3541Z" fill="white"/>
<path d="M44.4959 59.3586L47.5289 56.6847H48.2247V62.8593H46.2353V60.115L44.6155 61.4871H44.398L42.7891 60.115V62.8593H40.7997V56.6847H41.5172L44.4959 59.3586Z" fill="white"/>
<path d="M55.0013 62.8593L54.5556 62.0852H51.5551L51.1094 62.8593H49.2069V62.6306L52.6314 56.6232H53.4684L56.9037 62.6306V62.8593H55.0013ZM53.9142 60.7307L53.0445 59.1123L52.1965 60.7307H53.9142Z" fill="white"/>
<path d="M59.251 60.977C59.251 61.1236 59.3307 61.2497 59.4901 61.3552C59.6568 61.4549 59.8561 61.5165 60.0881 61.5399C60.32 61.5634 60.5519 61.5663 60.7838 61.5487C61.023 61.5253 61.2223 61.4666 61.3817 61.3728C61.5484 61.2731 61.6318 61.1558 61.6318 61.021C61.6318 60.9154 61.5955 60.8304 61.5231 60.7659C61.4578 60.6955 61.3527 60.6428 61.2078 60.6076C61.0701 60.5665 60.9288 60.5401 60.7838 60.5284C60.6461 60.5108 60.4649 60.4962 60.2402 60.4844C59.3488 60.4317 58.6675 60.2616 58.1965 59.9743C57.7254 59.687 57.4862 59.2267 57.479 58.5934C57.4645 58.0891 57.6565 57.664 58.0551 57.318C58.4538 56.9721 58.9393 56.761 59.5119 56.6847C60.0844 56.6026 60.657 56.6026 61.2295 56.6847C61.8093 56.761 62.2985 56.9721 62.6971 57.318C63.0957 57.664 63.2914 58.0891 63.2842 58.5934H61.4361C61.4361 58.3999 61.3274 58.2533 61.1099 58.1536C60.8998 58.0481 60.6642 57.9982 60.4033 58.0041C60.1497 58.0041 59.9105 58.0569 59.6858 58.1624C59.4612 58.2621 59.3416 58.3999 59.3271 58.5758C59.3053 58.7869 59.3959 58.9364 59.5989 59.0244C59.809 59.1065 60.1207 59.1651 60.5338 59.2003C60.8092 59.2237 61.0266 59.2443 61.186 59.2618C61.3455 59.2794 61.5448 59.3088 61.784 59.3498C62.0231 59.3909 62.2116 59.4378 62.3493 59.4905C62.4942 59.5433 62.65 59.6166 62.8167 59.7104C62.9834 59.7984 63.1102 59.901 63.1972 60.0183C63.2914 60.1355 63.3675 60.2792 63.4255 60.4493C63.4907 60.6193 63.5234 60.8128 63.5234 61.0298C63.5234 61.3875 63.4074 61.707 63.1755 61.9885C62.9508 62.2641 62.6573 62.4752 62.2949 62.6218C61.9325 62.7684 61.5303 62.8768 61.0882 62.9472C60.6461 63.0176 60.204 63.0176 59.7619 62.9472C59.3271 62.8827 58.9285 62.7772 58.5661 62.6306C58.211 62.4781 57.9211 62.2582 57.6964 61.9709C57.4717 61.6777 57.363 61.3464 57.3703 60.977H59.251Z" fill="white"/>
<path d="M66.072 58.1096H64.2021V56.7023H69.8551V58.1096H67.9962V62.8593H66.072V58.1096Z" fill="white"/>
<path d="M75.8074 56.7023V58.1096H72.9917V58.9804H75.5791V60.3789H72.9917V61.4608H75.9052V62.8593H71.0567V56.7023H75.8074Z" fill="white"/>
<path d="M82.5106 60.6779L84 62.6306V62.8593H81.8258L80.5212 61.0474H79.5102V62.8593H77.5642V56.7023H80.9017C81.38 56.7023 81.8076 56.7786 82.1845 56.931C82.5686 57.0776 82.8658 57.2682 83.076 57.5027C83.2934 57.7373 83.4492 58.0041 83.5434 58.3031C83.6376 58.5963 83.6594 58.8895 83.6086 59.1827C83.5651 59.47 83.4492 59.7485 83.2608 60.0183C83.0723 60.288 82.8223 60.5079 82.5106 60.6779ZM80.9017 59.6313C81.1046 59.6313 81.2749 59.5814 81.4127 59.4817C81.5504 59.3762 81.6373 59.2501 81.6736 59.1035C81.7098 58.9511 81.7134 58.8015 81.6844 58.655C81.6554 58.5025 81.5685 58.3735 81.4235 58.2679C81.2858 58.1624 81.1119 58.1096 80.9017 58.1096C80.764 58.1096 80.6154 58.1096 80.456 58.1096C80.3038 58.1096 80.1335 58.1096 79.945 58.1096C79.7566 58.1096 79.6117 58.1096 79.5102 58.1096V59.6313H80.9017Z" fill="white"/>
</svg>
